<svg height="60" viewBox="0 0 157 60" width="157" xmlns="http://www.w3.org/2000/svg"><g fill="#0081ba" transform="translate(0 .07)"><g transform="translate(0 10.93)"><path d="m115.86386 26.7185314c-6.142789 0-11.140874 4.9980849-11.140874 11.1408736 0 6.1425101 4.998085 11.140595 11.140874 11.140595 6.14251 0 11.140595-4.9983635 11.140595-11.140595 0-6.1425102-4.998085-11.1408736-11.140595-11.1408736zm0 20.0533496c-4.915345 0-8.912755-3.9971307-8.912755-8.912476s3.997131-8.9127546 8.912755-8.9127546c4.915067 0 8.912476 3.9974093 8.912476 8.9127546 0 4.9150667-3.997131 8.912476-8.912476 8.912476z"/><path d="m115.931277 36.7450669h-.023958c-.613722 0-1.101245.4983877-1.101245 1.1143381 0 .6156718.509253 1.1137809 1.125203 1.1137809.613443 0 1.113781-.4981091 1.113781-1.1137809 0-.6159504-.500338-1.1143381-1.113781-1.1143381zm-.067417-5.5702975c-.615951 0-1.114338.4983877-1.114338 1.1140595v2.228119c0 .6159504.498387 1.1140595 1.114338 1.1140595.615672 0 1.113781-.4981091 1.113781-1.1140595v-2.228119c0-.6156718-.498109-1.1140595-1.113781-1.1140595zm0 8.9127546c-.615951 0-1.114338.4981091-1.114338 1.1137809v2.228119c0 .6159504.498387 1.1143381 1.114338 1.1143381.615672 0 1.113781-.4983877 1.113781-1.1143381v-2.228119c0-.6156718-.498109-1.1137809-1.113781-1.1137809zm-1.575674-5.37891-1.575396-1.5751169c-.435149-.435149-1.139968-.435149-1.575117 0-.435149.4348705-.435149 1.1399679 0 1.5751169l1.575117 1.5753955c.217575.2172959.502845.3262225.787837.3262225s.569984-.1089266.787559-.3262225c.435149-.4354276.435149-1.1402464 0-1.5753955zm6.301582 6.3015819-1.575117-1.5753955c-.435149-.435149-1.140247-.435149-1.575396 0-.435149.4351491-.435149 1.1402465 0 1.5753955l1.575396 1.5751169c.217296.2175745.502566.3265011.787558.3265011s.569984-.1089266.787559-.3265011c.435149-.435149.435149-1.1399679 0-1.5751169zm-8.068365-4.265129h-2.228119c-.615672 0-1.11406.4983877-1.11406 1.1143381 0 .6156718.498388 1.1137809 1.11406 1.1137809h2.228119c.61595 0 1.114338-.4981091 1.114338-1.1137809 0-.6159504-.498388-1.1143381-1.114338-1.1143381zm8.912476 0h-2.228119c-.615672 0-1.113781.4983877-1.113781 1.1143381 0 .6156718.498109 1.1137809 1.113781 1.1137809h2.228119c.61595 0 1.114338-.4981091 1.114338-1.1137809 0-.6159504-.498388-1.1143381-1.114338-1.1143381zm-7.145693 2.6897335c-.435149-.435149-1.140247-.435149-1.575396 0l-1.575117 1.5753955c-.435149.4348705-.435149 1.1399679 0 1.5751169.217296.2175745.502567.3265011.787559.3265011.28527 0 .569984-.1089266.787558-.3265011l1.575396-1.5751169c.435149-.435149.435149-1.1402464 0-1.5753955zm6.301303-6.3013033c-.43487-.435149-1.139968-.435149-1.575117 0l-1.575395 1.5751169c-.435149.4351491-.435149 1.1402465 0 1.5753955.217574.2172959.502845.3262225.787837.3262225s.569984-.1089266.787558-.3262225l1.575117-1.5753955c.435149-.435149.435149-1.1399678 0-1.5751169zm-91.6236633-6.4149657c-6.1427887 0-11.1405951 4.9980849-11.1405951 11.1408736 0 6.1425101 4.9978064 11.140595 11.1405951 11.140595s11.140595-4.9983635 11.140595-11.140595c0-6.1425102-4.9978063-11.1408736-11.140595-11.1408736zm0 20.0533496c-4.9153453 0-8.9124761-3.9971307-8.9124761-8.912476s3.9968522-8.9127546 8.9124761-8.9127546c4.9156238 0 8.912476 3.9974093 8.912476 8.9127546 0 4.9150667-3.9971307 8.912476-8.912476 8.912476z"/><path d="m29.0332431 36.7450669h-.0239583c-.6134431 0-1.100966.4983877-1.100966 1.1143381 0 .6156718.5092525 1.1137809 1.1249243 1.1137809.6137217 0 1.1140595-.4981091 1.1140595-1.1137809 0-.6159504-.5003378-1.1143381-1.1140595-1.1143381zm-.0674174-5.5702975c-.6156718 0-1.1140595.4983877-1.1140595 1.1140595v2.228119c0 .6159504.4983877 1.1140595 1.1140595 1.1140595.6159503 0 1.1140595-.4981091 1.1140595-1.1140595v-2.228119c0-.6156718-.4983877-1.1140595-1.1140595-1.1140595zm0 8.9127546c-.6156718 0-1.1140595.4981091-1.1140595 1.1137809v2.228119c0 .6159504.4983877 1.1143381 1.1140595 1.1143381.6159503 0 1.1140595-.4983877 1.1140595-1.1143381v-2.228119c0-.6156718-.4983877-1.1137809-1.1140595-1.1137809zm-1.5753955-5.37891-1.5751169-1.5751169c-.435149-.435149-1.1402464-.435149-1.5753955 0-.435149.4348705-.435149 1.1399679 0 1.5751169l1.5753955 1.5753955c.2175745.2172959.5025665.3262225.7875584.3262225.284992 0 .569984-.1089266.7875585-.3262225.435149-.4354276.435149-1.1402464 0-1.5753955zm6.3013033 6.3015819-1.5753955-1.5753955c-.4348704-.435149-1.1399678-.435149-1.5751169 0-.435149.4351491-.435149 1.1402465 0 1.5753955l1.5751169 1.5751169c.2178531.2175745.5028451.3265011.787837.3265011.284992 0 .5702626-.1089266.7875585-.3265011.435149-.435149.435149-1.1399679 0-1.5751169zm-8.0680863-4.265129h-2.2281191c-.6156717 0-1.1140595.4983877-1.1140595 1.1143381 0 .6156718.4983878 1.1137809 1.1140595 1.1137809h2.2281191c.6156717 0 1.1140595-.4981091 1.1140595-1.1137809 0-.6159504-.4983878-1.1143381-1.1140595-1.1143381zm8.912476 0h-2.228119c-.6156718 0-1.1140595.4983877-1.1140595 1.1143381 0 .6156718.4983877 1.1137809 1.1140595 1.1137809h2.228119c.6159504 0 1.1140595-.4981091 1.1140595-1.1137809 0-.6159504-.4983877-1.1143381-1.1140595-1.1143381zm-7.1459716 2.6897335c-.4348704-.435149-1.1399679-.435149-1.5751169 0l-1.5753955 1.5753955c-.435149.4348705-.435149 1.1399679 0 1.5751169.2178531.2175745.5028451.3265011.7878371.3265011.2849919 0 .5699839-.1089266.7875584-.3265011l1.5751169-1.5751169c.435149-.435149.435149-1.1402464 0-1.5753955zm6.3018605-6.3013033c-.4351491-.435149-1.1402465-.435149-1.5753955 0l-1.5751169 1.5751169c-.435149.4351491-.435149 1.1402465 0 1.5753955.2175745.2172959.5025665.3262225.7875585.3262225.2849919 0 .5699839-.1089266.7875584-.3262225l1.5753955-1.5753955c.435149-.435149.435149-1.1399678 0-1.5751169z"/><path d="m135.155559 20.0910056c-6.599667-2.199982-26.720434-6.2450292-28.933231-6.6865857-1.534165-.8377037-14.1718731-7.68113245-24.5424605-11.13864495-6.3013033-2.09746286-38.0788826-6.89970285-67.5581395 10.00731315l-8.69072275 1.0856439c-.45464994.0565527-.82906753.3894612-.94217285.835475l-2.19775329 8.7926847-2.17351644 4.34759c-.07633216.1543359-.11756267.3262225-.11756267.4981092 0 3.5575243.27635585 11.9677124 2.84406938 13.2511513 2.34568168 1.1731194 11.96297652 1.2319008 13.86710172 1.2319008.6156718 0 1.1140595-.4983877 1.1140595-1.1143381 0-.6156718-.4983877-1.1137809-1.1140595-1.1137809-4.2060691 0-11.41917952-.2699484-12.85751141-.990368-.85079713-.5872562-1.59935374-5.6923175-1.62554068-11.0035314l2.11083492-4.2191626c.03705174-.0718748.06518878-.1501571.08468969-.2284393l2.04313889-8.1706055 8.15528329-1.0204551c.1456997-.0175508.2894493-.0654673.4178768-.1415209 28.8181758-16.62648145 59.8120968-11.97857729 65.935106-9.93320973 10.8076866 3.60126212 24.1878224 10.98403053 24.3226574 11.05813403.099733.0565526.20866.0958331.321765.1175627.219803.0434591 22.122676 4.4127788 28.830991 6.6495339 4.512791 1.5035207 5.83161 11.2581577 5.918528 17.2485607-1.71023.3939185-7.391962.6332226-12.250476.6332226-.61595 0-1.114059.4981091-1.114059 1.1137809 0 .6159504.498109 1.1146167 1.114059 1.1146167 14.483052 0 14.483052-1.1341176 14.483052-2.228119 0-4.108286-.537389-17.6923458-7.446007-19.9965184z"/><path d="m103.608648 40.087524h-62.3881678c-.6156718 0-1.1140595.4981091-1.1140595 1.1137809 0 .6159504.4983877 1.1143381 1.1140595 1.1143381h62.3884468c.61595 0 1.113781-.4983877 1.113781-1.1143381s-.49811-1.1137809-1.11406-1.1137809zm-36.7946078-28.1086211-2.228119-9.4044563c-.1415209-.60062823-.7354631-.97699592-1.3405487-.82683886-.5983996.14152094-.9683598.74214917-.8268389 1.34054872l2.228119 9.40417774c.1220201.5137098.5788987.8574831 1.0836938.8574831.0849683 0 .169658-.0086361.256855-.0303657.5983995-.1415209.9683598-.7421492.8268388-1.3405487zm34.5667678 1.3709144h-73.5290418c-.6156718 0-1.1140595.4981091-1.1140595 1.1140595 0 .6156718.4983877 1.1140595 1.1140595 1.1140595h73.5290418c.61595 0 1.114059-.4983877 1.114059-1.1140595 0-.6162289-.498109-1.1140595-1.114059-1.1140595z"/><path d="m37.6604486 4.88948398c-.3632742-.49393036-1.0619642-.60062823-1.5578447-.23512534-.2805346.20670972-6.9041602 5.11146881-9.2236549 9.26516406-.3003141.5373895-.1064193 1.2163.4287416 1.5166141.1718866.0958331.3590954.1415209.5440756.1415209.3897397 0 .7680575-.2067097.9722599-.5699839 2.0843694-3.7316397 8.536387-8.51215005 8.6015757-8.56006659.4936518-.36327422.6003497-1.0619642.2348468-1.55812323zm101.3548994 19.60092842h-6.440596c-.615671 0-1.114059.4981091-1.114059 1.1140595 0 .6159503.498388 1.1140595 1.114059 1.1140595h6.440596c.61595 0 1.114059-.4981092 1.114059-1.1140595 0-.6159504-.498109-1.1140595-1.114059-1.1140595z"/><path d="m133.362311 24.8166348-4.456238-4.456238c-.435149-.435149-1.139968-.435149-1.575117 0-.435149.4348705-.435149 1.1399679 0 1.5751169l4.456238 4.4565166c.217574.2172959.502566.3262225.787558.3262225.285271 0 .569984-.1089266.787559-.3262225.435149-.435149.435149-1.1402464 0-1.5753955zm-118.8773088-6.9824424-10.0268141-.0284157h-.00222867c-.61344312 0-1.11183083.4961591-1.11406695 1.1118309-.00222123.6134431.49616648 1.1140595 1.11183827 1.1162882l10.02681415.0284156h.0022286c.6137217 0 1.1121094-.4964376 1.114067-1.1118308.0022212-.6134432-.4961665-1.1140596-1.1118383-1.1162882z"/><path d="m15.2728392 18.1629221c-.4309702-.435149-1.1357891-.4396064-1.5753954-.0044573l-4.45623804 4.4281009c-.43514902.4326418-.43960638 1.1380178-.00445735 1.5751169.21757451.2198032.50256647.3287298.78978709.3287298.2827633 0 .5680339-.1089266.7856084-.3239938l4.456238-4.428101c.435149-.4329204.4396064-1.1380178.0044573-1.5753955z"/><path d="m10.0268141 22.2622933h-6.68463559c-.61567179 0-1.1140595.4981092-1.1140595 1.1140595 0 .6159504.49838771 1.1140596 1.1140595 1.1140596h6.68435699c.6159504 0 1.1143381-.4981092 1.1143381-1.1140596 0-.6159503-.4983877-1.1140595-1.1140595-1.1140595zm131.3409019 13.3687141h-2.108328c-.615672 0-1.11406.4983877-1.11406 1.1140595 0 .6159504.498388 1.1143381 1.11406 1.1143381h2.108328c.61595 0 1.114059-.4983877 1.114059-1.1143381 0-.6156718-.498109-1.1140595-1.114059-1.1140595z"/></g><path d="m34.832967 26.021886c-1.697915 0-3.0792271-1.3811866-3.0792271-3.0792271 0-.5206889-.42197-.9426589-.9426589-.9426589s-.9426589.42197-.9426589.9426589c0 1.6979151-1.3811867 3.0792271-3.0792271 3.0792271-.520689 0-.942659.42197-.942659.942659 0 .5206889.42197.9426589.942659.9426589 1.697915 0 3.0792271 1.3813121 3.0792271 3.0792271 0 .5206889.42197.9426589.9426589.9426589s.9426589-.42197.9426589-.9426589c0-1.697915 1.3811867-3.0792271 3.0792271-3.0792271.5206889 0 .942659-.42197.942659-.9426589 0-.520689-.4219701-.942659-.942659-.942659zm-4.0217606 2.0570411c-.3100802-.4276146-.6868929-.8043019-1.1143821-1.1143821.4276146-.3100803.8044273-.686893 1.1143821-1.1143822.3100803.4276147.686893.8043019 1.1143822 1.1143822-.4276147.3100802-.8043019.6868929-1.1143822 1.1143821zm-3.9782394-24.05704107c-1.697915 0-3.0792271-1.38118664-3.0792271-3.07922709 0-.52068892-.42197-.94265894-.9426589-.94265894s-.9426589.42197002-.9426589.94265894c0 1.69791502-1.3811867 3.07922709-3.0792271 3.07922709-.520689 0-.942659.42197001-.942659.94265893 0 .52068893.42197.94265894.942659.94265894 1.697915 0 3.0792271 1.38131207 3.0792271 3.07922709 0 .52068892.42197.94265894.9426589.94265894s.9426589-.42197002.9426589-.94265894c0-1.69791502 1.3811867-3.07922709 3.0792271-3.07922709.5206889 0 .942659-.42197001.942659-.94265894 0-.52068892-.4219701-.94265893-.942659-.94265893zm-4.0217606 2.0570411c-.3100802-.42761468-.6868929-.80430194-1.1143821-1.11438217.4276146-.31008022.8044273-.68689292 1.1143821-1.11438216.3100803.42761467.686893.80430194 1.1143822 1.11438216-.4276147.31008023-.8043019.68689293-1.1143822 1.11438217zm-9.9166399 8.74472937c-2.6409211 0-4.7894272-2.1483591-4.7894272-4.7894273.00014708-.61037102-.49462117-1.10513927-1.1051393-1.10513927-.61037106 0-1.10528638.49476825-1.10528638 1.10528637 0 2.6409211-2.14865319 4.7894272-4.78942724 4.7894272-.61037105 0-1.10528638.4947683-1.10528638 1.1052864 0 .6105182.49491533 1.1052864 1.10528638 1.1052864 2.64077405 0 4.78942724 2.1485061 4.78942724 4.7894272 0 .6105182.49491532 1.1052864 1.10528638 1.1052864.61051813 0 1.10528638-.4947682 1.10528638-1.1052864 0-2.6409211 2.14850612-4.7894272 4.78942722-4.7894272.6105182 0 1.1052864-.4947682 1.1052864-1.1052864 0-.6105181-.4949153-1.1054334-1.1054335-1.1054334zm-5.89449722 3.1054334c-.51473899-.801441-1.19851744-1.4852431-2.00006928-2 .80155184-.5147568 1.48533029-1.1985589 2.00006928-2 .51473899.8014411 1.19851744 1.4852432 1.99993072 2-.80141328.5147569-1.48519173 1.198559-1.99993072 2z" transform="translate(121)"/></g></svg>