<svg xmlns="http://www.w3.org/2000/svg" width="67" height="60" viewBox="0 0 67 60">
  <g fill="#0081ba">
    <path d="m24.0767621 19.9620475c-.3824335-.3826136-1.0033136-.3826136-1.3862577 0-.3829442.3831244-.3829442 1.0042968 0 1.3869104l4.6229015 4.6250778c.6367085.6370083.6367085 1.6745092 0 2.3115174l-5.0436294 5.0465149-5.6849334-5.6881205c-.1843237-.1844106-.4314504-.2860663-.6928735-.2860663-.2614232 0-.5085499.1016557-.6928736.2860663-.3829442.3831243-.3829442 1.0058292 0 1.3874212l5.6849332 5.6870987-5.6466389 5.6498081c-.1409233.1415006-.3283107.2191471-.5279522.2191471-.1996416-.0005108-.387029-.0781573-.5279523-.2191471l-6.70816005-6.7113182c-.14092344-.1409896-.21853345-.3284652-.21853345-.5282008 0-.1992247.07761001-.3867002.21853345-.52769l20.14847785-20.1574525c.3819229-.3826135 1.0038243-.3826135 1.3862578 0l6.3772963 6.3802985c.3829441.3831245 1.0038242.3831245 1.3862577 0 .3829442-.3831243.3829442-1.0037859 0-1.3869104l-6.3772962-6.3808093c-1.1467901-1.14681916-3.0124939-1.14681916-4.159284 0l-20.1484778 20.1579633c-.51059218.5113434-.7919285 1.1907507-.79243975 1.9140896-.00050987.7238497.28133701 1.4042787.79295031 1.916133l6.70816004 6.7108072c.5105922.5113433 1.1901904.7933229 1.913189.7938337h.0010211c.7229985 0 1.4031073-.2819796 1.91421-.7933229l12.0760156-12.0827223c1.4015755-1.4022355 1.4015755-3.6836136 0-5.0863597z"/>
    <path d="m66.6637799 31.2291931c-.0803631-4.3091785-1.8229212-8.364726-4.90673-11.4189919-.1057946-.1049155-.213115-.2077939-.3214526-.3096537.8707703-1.7906951 1.36007-3.8008981 1.36007-5.9231468 0-7.48669452-6.0826769-13.5774007-13.5595022-13.5774007-3.8111463 0-7.3725564 1.62007993-9.8902629 4.30001107-.7349668-.2760401-1.5106238-.42119026-2.3000138-.42322746-1.7105145-.00356513-4.9820069.00458366-7.9722284.00662085-1.9973805.0020372-3.8752333.78177392-5.2876921 2.19609708l-21.45136733 21.47968326c-1.50553758 1.5075249-2.33460057 3.5116163-2.33460057 5.6430324 0 2.1319253.82906299 4.1360167 2.33460057 5.6435416l6.68234883 6.6911697c1.5055376 1.5075249 3.5069871 2.3376821 5.6355934 2.3376821 2.1291149 0 4.1305644-.8301572 5.6355934-2.3376821l11.1262279-11.1404053c.4358938 1.1163833 1.0996527 2.1416022 1.9714404 3.0145405l2.0065357 2.0091843-4.4866037 4.4920168c-.3687549.3697511-.5722059.8607152-.5722059 1.3832559v1.2243547h-1.2232494c-.5213432 0-1.0116602.2037196-1.3809238.5729613l-.7761657.7771902c-.3687549.3692417-.572206.8607152-.572206 1.383256v1.2243547h-1.2232492c-.5218519 0-1.0121689.2037195-1.3809239.5729612l-.983177.9849843c-.6764747.6768583-1.0492987 1.5772988-1.0492987 2.5352901v2.4955648c0 1.616515 1.3148022 2.933562 2.9296948 2.933562h2.4927836c.9567284 0 1.8554733-.3728068 2.5319481-1.0501744l12.5987046-12.615335 1.9973805 2.000017c1.6601603 1.6623518 3.8670952 2.5780713 6.21492 2.5780713 2.3473163 0 4.5547599-.9157195 6.2149202-2.5780713l4.7760129-4.7828265c3.3681316-3.18923 5.2500536-7.6802282 5.1630783-12.322488zm-17.4271061-29.27348513c6.3995519 0 11.6063724 5.21318405 11.6063724 11.62169273 0 1.6445263-.3438324 3.209602-.9618148 4.6290182-4.7892371-3.521293-10.8790348-4.0402686-15.9454741-1.9781171l.0010173-.8805779c.0030517-1.8456994.0050863-3.4729096.0030517-4.5684117-.004069-1.7861114-.7375099-3.50295806-2.0655364-4.83528412-.2405808-.2403891-.4938774-.46040625-.7573465-.6610701 2.129115-2.08201411 5.0277835-3.32725001 8.1197304-3.32725001zm-18.3685758 30.22129043-11.9608857 11.9771834c-1.1362739 1.1377738-2.6474064 1.7647208-4.2546695 1.7647208s-3.1178869-.626947-4.2546695-1.7647208l-6.682349-6.6911696c-2.34629891-2.3493961-2.34629891-6.1716847 0-8.5205715l21.4513674-21.48019248c1.0442124-1.04559071 2.4322571-1.62160786 3.9088028-1.62313579 2.9698764-.00203719 6.3278356-.01018598 7.9661249-.00662085.3321338.00101866.6617245.03921599.984703.11102723-.4094452.60046337-.7741312 1.23708712-1.0859199 1.90681527-1.5675902.05500416-2.8259347 1.34811423-2.8259347 2.93101532 0 1.6175335 1.3142936 2.933562 2.9296947 2.933562 1.6154012 0 2.9296948-1.3160285 2.9296948-2.933562 0-.94984246-.4531872-1.79476946-1.1545846-2.33157048.2924608-.59333338.632224-1.15610869 1.014712-1.683233.2304082.16654066.4511527.35243474.6586727.56022871.9602888.96308435 1.4907874 2.19100415 1.4938391 3.45712137.0025431 1.0939741 0 2.7181285-.0030517 4.560772l-.0025432 1.8355135c-1.2654654.7257511-2.4429381 1.6246637-3.5019007 2.6870612l-5.0918706 5.0960454c-1.8676804 1.8696365-2.8233915 4.4726633-2.5192323 7.2137103zm7.1528295-21.395649c0 .5393477-.4379283.977854-.976565.977854-.5386366 0-.9765649-.4385063-.9765649-.977854 0-.4084576.2512621-.7588553.6073013-.90502416.1057945.12426896.243124.22409156.406902.28418886.2380378.0875993.4867567.0753761.7039406-.0132418.1459761.1706152.234986.3921602.234986.6340771zm-9.703088 46.7857295c-.307211.3076166-.7161476.4772131-1.1510242.4772131h-2.0228118l12.3520203-12.3688342c.3799448-.3824836.3814707-.9987353 0-1.383256-.3814707-.381465-.9979272-.383502-1.3814324 0l-12.4166161 12.433006v-2.1543346c0-.4354505.169373-.844927.476584-1.1525434l.9836858-.9849843h2.1993056c.5396538 0 .9765649-.4374878.9765649-.977854l.0005086-2.2022086.7761656-.7776995h2.1998143c.5391452 0 .9765649-.4374879.9765649-.977854l-.0005086-2.2022087 4.4871123-4.492526c2.5294048 2.5332529 1.5777626 1.5798453 4.1427714 4.1487493zm31.8319473-15.4271745c-.0066121.0061116-.0132244.0127326-.0198365.0193534l-4.7861854 4.7925031c-1.2914053 1.2926008-3.0080234 2.0051101-4.8339964 2.0051101-1.8259729 0-3.5425909-.7125093-4.8334876-2.0051101l-10.9090439-10.9234439c-1.2914054-1.2931101-2.0024668-3.0125033-2.0024668-4.8408865.0005087-1.8288925.7120786-3.5477764 2.003484-4.8403772l5.0928877-5.0970639c5.1066207-5.1240567 13.223808-5.7530409 19.0694647-1.2900542-1.051842 1.5971615-2.4861716 2.9203201-4.1717634 3.8370582-1.331587-.8001087-2.8793406-1.267645-4.5237334-1.2813961h-.0722252c-.3565479 0-.7151304.0208812-1.066592.0621345-1.3300611.1563548-2.4292052 1.0399884-2.8686594 2.3066149-.4394542 1.2671358-.1241051 2.6427522.8229593 3.5910669.8107524.8118225 1.931259 1.2763031 3.082283 1.2763031h.0198365.0330608c.9241764.010186 1.7496788.8291387 1.7669722 1.7514792.0005086.0346323.0005086.0682461-.0005086.0998226-.0310264 1.100595.4124969 2.1940598 1.2176543 3.0002801l.0595094.0590787c.6647763.6656537 1.5416502 1.0201258 2.4449727 1.0201258.382488 0 .7695535-.0636624 1.1474638-.194043 1.2527497-.4323948 2.1306408-1.514655 2.29035-2.8250812.0518799-.4252646.0742595-.8612245.0661215-1.294638-.0457764-2.4512558-1.0971096-4.6779108-2.7511665-6.2857677 1.5752196-.9905864 2.9332552-2.2959195 3.9861142-3.8273815 2.587897 2.5836736 4.2256778 6.1227919 4.297903 10.0097615.076294 4.0978194-1.5859008 8.0616931-4.561372 10.8745512zm-9.9497724-14.3438956h-.0411988c-.0030519 0-.0172933 0-.0198365 0-.0035605 0-.0071208 0-.0106812 0-.6128962 0-1.2110422-.2424263-1.6545654-.6651444.2543138.0142604.5086276.0239371.7629413.0239371 1.8992153 0 3.7078949-.3936882 5.3502533-1.1031416 1.5716592 1.2752846 2.5985783 3.204509 2.6382511 5.3537506.0066122.3427581-.0106811.6860257-.0513713 1.0206351-.0696819.5704148-.4394542 1.0242002-.9882634 1.2136594-.5661024.1955708-1.1550932.0606065-1.5752195-.3600744l-.0590008-.0595879c-.4267386-.4273019-.6627418-.9961888-.6464657-1.5630385.0015259-.0621345.0020345-.1252876.0010173-.1894593-.0366211-1.9679312-1.730351-3.649127-3.7058604-3.6715361zm-1.9414314-2.6386779c.2410894-.3539628.6174739-.5841659 1.0650662-.637133.2761846-.0325951.5589816-.0488927.835675-.0488927l.0640871.0005093c.7090268.0056023 1.3951654.119176 2.0426483.3249328-.9663924.2617796-1.981613.4023462-3.0293858.4023462-.3265389 0-.6530778-.0147697-.9780908-.0417626z"/>
  </g>
</svg>
