<svg height="34" viewBox="0 0 242 34" width="242" xmlns="http://www.w3.org/2000/svg"><g fill="none" fill-rule="evenodd"><path d="m-.00004823 31.6450539c0 .5567801.21460993 1.0636454.56570213 1.4419858.38726241.4176454.9409078.6790355 1.55531915.6790355h80.16548935c.6071773 0 1.1543121-.2548795 1.5410922-.6636029.3595319-.3800283.5801702-.8929219.5801702-1.4574184v-29.28292199c0-.60476595-.2531915-1.15021276-.6590213-1.53675177-.3807517-.36194326-.8953333-.5842695-1.4622411-.5842695h-80.16548935c-.58571631 0-1.11597163.23727659-1.49985816.62116312-.38388652.38388652-.62116312.91414184-.62116312 1.49985815zm179.82138723-6.2858525c.031017-1.3190071-9.886132-.9611631-9.178643-.5126525 1.446809 1.1191064 9.208937 1.6310355 9.178643.5126525m61.183393.5617475c-.051121-1.7383404-10.005887-1.0547234-9.137078-.3916028 1.319972 1.2932057 8.998667 1.7243546 9.137078.3916028m-20.124166-.8999149c.174823-1.7296595-38.389135-1.8280425-35.837688-.6544397 4.577461 2.1142695 35.961149 2.1239149 35.837688.6544397m-37.79645-8.659173c13.166922-.8024965 31.827858.0098865 31.677149 1.0238581 1.044355 1.2399149-32.326525.2447518-31.677149-1.0238581" fill="#0081ba"/><path d="m206.484074 9.65694043c-6.482185-.7528227-12.37383-.70025532-18.360724-.06124823-6.915744 1.6259716-9.884837 4.3633333-15.445404 5.558156-1.626936.1835036-1.296099 2.109688-.250539 4.3638156.766809 1.5017873 1.565929 2.6119717-1.347461 1.7460568-1.193135-1.5324114-1.806581-4.3001561-2.575078-5.9912341-.640454-.962851-.557986-1.7050638 1.656355-1.4132908 3.2259.4521277 12.586028-5.29194322 17.96261-5.7136879 8.564865-.63514893 12.55251-.38195745 18.360482.13093617.150468.00024114.360737.05329078.476482.11743263 3.347915 1.2642695 7.555234 3.4342411 11.491759 6.3242411.056908.0653475.150468.1880851.341206.1880851 6.352695.7455887 17.897503 1.1699859 21.393234 7.3454468.6419 1.182766-4.857178.6585391-6.412497-.241617-2.314652-1.2430496-3.538652-1.8352766 2.083887-1.4130496 3.031305-1.2900709-12.588681-4.284-17.255844-4.2854468-.405348-.0002412-.363631-.0002412-.699291-.1772341-3.749886-2.67539-7.000624-4.3700851-10.997433-6.3630638-.14878-.05980142-.271517-.11429787-.421744-.11429787m-26.662735 15.70226097c.031017-1.3190071-9.886132-.9611631-9.178643-.5126525 1.446809 1.1191064 9.208937 1.6310355 9.178643.5126525m61.183393.5617475c-.051121-1.7383404-10.005887-1.0547234-9.137078-.3916028 1.319972 1.2932057 8.998667 1.7243546 9.137078.3916028m-20.124166-.8999149c.174823-1.7296595-38.389135-1.8280425-35.837688-.6544397 4.577461 2.1142695 35.961149 2.1239149 35.837688.6544397" fill="#0081ba"/><path d="m183.084116 16.361861c13.166922-.8024965 31.827858.0098865 31.677149 1.0238581 1.044355 1.2399149-32.326525.2447518-31.677149-1.0238581" fill="#0081ba"/><path d="m206.484074 9.65694043c-6.482185-.7528227-12.37383-.70025532-18.360724-.06124823-6.915744 1.6259716-9.884837 4.3633333-15.445404 5.558156-1.626936.1835036-1.296099 2.109688-.250539 4.3638156.766809 1.5017873 1.565929 2.6119717-1.347461 1.7460568-1.193135-1.5324114-1.806581-4.3001561-2.575078-5.9912341-.640454-.962851-.557986-1.7050638 1.656355-1.4132908 3.2259.4521277 12.586028-5.29194322 17.96261-5.7136879 8.564865-.63514893 12.55251-.38195745 18.360482.13093617.150468.00024114.360737.05329078.476482.11743263 3.347915 1.2642695 7.555234 3.4342411 11.491759 6.3242411.056908.0653475.150468.1880851.341206.1880851 6.352695.7455887 17.897503 1.1699859 21.393234 7.3454468.6419 1.182766-4.857178.6585391-6.412497-.241617-2.314652-1.2430496-3.538652-1.8352766 2.083887-1.4130496 3.031305-1.2900709-12.588681-4.284-17.255844-4.2854468-.405348-.0002412-.363631-.0002412-.699291-.1772341-3.749886-2.67539-7.000624-4.3700851-10.997433-6.3630638-.14878-.05980142-.271517-.11429787-.421744-.11429787" fill="#0081ba"/><path d="m14.3404043 26.8943135c-1.751844-.9532057-3.1248653-2.2647376-4.1197873-3.9355603-.99492196-1.6703404-1.49238296-3.5509504-1.49238296-5.6418298 0-2.0906383.497461-3.9712482 1.49238296-5.6420709.994922-1.6703404 2.3734894-2.98235463 4.1352199-3.9355603 1.7617305-.95296454 3.7313191-1.42944681 5.9078014-1.42944681 1.6995177 0 3.2543546.28188652 4.6640284.84541844 1.4094326.56401418 2.6122127 1.39906383 3.6068936 2.50587234l-2.0211915 1.93679433c-1.6375461-1.70096454-3.6794752-2.55168795-6.1250638-2.55168795-1.6170497 0-3.0785674.35880851-4.3845532 1.07618445-1.3057447.717617-2.3269504 1.7062695-3.0624114 2.9669219-.7359432 1.2606525-1.1039149 2.6700851-1.1039149 4.2275745 0 1.5579716.3679717 2.966922 1.1039149 4.2275745.735461 1.2606525 1.7566667 2.2497872 3.0624114 2.966922 1.3059858.7178581 2.7675035 1.0761844 4.3845532 1.0761844 2.4253333 0 4.466539-.8608511 6.1250638-2.5827944l2.0211915 1.9370355c-.9946809 1.1070496-2.202766 1.9476454-3.6223263 2.521305-1.4200425.5741418-2.9801844.860851-4.679461.860851-2.1767234 0-4.1407659-.4764823-5.8923687-1.4296879m33.5259773-6.5747078-4.7609646-10.81513478-4.7612057 10.81513478zm1.1039149 2.5225106h-11.7297589l-2.4277447 5.5178865h-3.247844l9.9955178-22.07154606h3.1214893l10.0266241 22.07154606h-3.310539zm12.6857375-13.85266098h4.5849362c1.6491206 0 2.9076028.29659574 3.7759291.89051064.867844.59343264 1.3018865 1.44753194 1.3018865 2.56133334 0 1.1140425-.4340425 1.9717589-1.3018865 2.5724255-.8683263.6013901-2.1268085.9016029-3.7759291.9016029h-4.5849362zm5.34861 9.55544678c.1651773-.0079574.3277021-.0185673.4603262-.0318298.3368653-.034 1.1632341-.1138156 2.4475177-.5056595 1.2840426-.3916029 2.274383-1.1374327 2.9688511-2.0981135.694227-.9606809 1.041461-2.1234326 1.041461-3.4887376 0-1.9211206-.6771064-3.42941844-2.0313191-4.52513475-1.2191774-.98624113-2.8509362-1.52469504-4.8868369-1.62283688l-.6857873-.02049645h-.0778865-4.5849362-3.1460851v22.02283688h3.1460851v-6.7011348-2.6741844-.3100992h1.9753759l6.8624539 9.7343688h3.4289362l-6.918156-9.7760852z" fill="#fefefe"/><g fill="#0081ba"><path d="m104.979051 24.5262979c1.220142-.7099007 2.182028-1.6889078 2.886383-2.9362979.704114-1.2476312 1.056653-2.6421135 1.056653-4.1839291 0-1.5413333-.352539-2.936539-1.056653-4.1839291-.704355-1.2476312-1.666241-2.226156-2.886383-2.9362978-1.220383-.70990074-2.594128-1.06509223-4.121716-1.06509223-1.52783 0-2.9117024.35519149-4.1513761 1.06509223-1.2399149.7101418-2.2121702 1.6886666-2.9160426 2.9362978-.7045957 1.2473901-1.0566525 2.6425958-1.0566525 4.1839291 0 1.5418156.3520568 2.9362979 1.0566525 4.1839291.7038724 1.2473901 1.6761277 2.2263972 2.9160426 2.9362979 1.2396737.7101418 2.6235461 1.0650922 4.1513761 1.0650922 1.527588 0 2.901333-.3549504 4.121716-1.0650922m-9.8055035 2.3580567c-1.6864964-.943078-3.0105674-2.2464113-3.9729362-3.91-.9623687-1.6631064-1.4431914-3.5191206-1.4431914-5.5682837 0-2.0486808.4808227-3.9049361 1.4431914-5.5685248.9623688-1.6631064 2.2864398-2.96668085 3.9729362-3.91 1.6860142-.94331915 3.5808511-1.41497872 5.6837875-1.41497872 2.083404 0 3.967872.47165957 5.654127 1.41497872 1.686015.94331915 3.005745 2.2415887 3.958227 3.8948085.952 1.6537021 1.428 3.514539 1.428 5.5837163s-.476 3.9304965-1.428 5.5834752c-.952482 1.6537021-2.272212 2.9517305-3.958227 3.8948085-1.686255.9433192-3.570723 1.4149787-5.654127 1.4149787-2.1029364 0-3.9977733-.4716595-5.6837875-1.4149787"/><path d="m134.704 6.513v21.765h-2.549l-13.06-16.231v16.231h-3.109v-21.765h2.55l13.059 16.231v-16.231z"/><path d="m155.133 25.597v2.705h-15.48v-21.766h15.48v2.706h-12.371v6.685h10.914v2.642h-10.914v7.028z"/><path d="m157.614957 8.34034468h.082951.195801c.056185.02748936.083433.05642553.139376.11068085.027731.02724823.110922.13865248.222085.27947518l.279717.44513475h.501078l-.249575-.38870922c-.084879-.16879433-.17-.27971631-.226184-.33590071-.054738-.05425532-.138412-.11068085-.220156-.16541844.165418-.03038298.306482-.08632624.390397-.19724822.110922-.11092199.138411-.22184398.138411-.38870922 0-.11092199-.027489-.22304965-.082468-.30672341-.055943-.11140425-.139858-.16758865-.251503-.19459574-.085362-.05473759-.251263-.05473759-.474071-.05473759h-.862539v2.03204255h.41668zm.307206-.86374468h.305518c.083915.02990071.112369.05570213.165177.08632624.028936.05425532.056667.11092199.056667.16565958 0 .05570212-.027731.11212766-.056667.16662411-.025319.02604255-.052808.05642553-.109234.08222695-.055943 0-.168071.02893617-.361461.02893617h-.307206v-.52977305z"/><path d="m158.060719 6.58789787c-.918964 0-1.641645.74848227-1.641645 1.64164539 0 .89002837.722681 1.61295036 1.641645 1.61295036.891234 0 1.587149-.72292199 1.587149-1.61295036 0-.89316312-.695915-1.64164539-1.587149-1.64164539m0-.16734752c.975149 0 1.781021.80490781 1.781021 1.80899291 0 1.00070922-.805872 1.81068084-1.781021 1.81068084-1.000709 0-1.808993-.80997162-1.808993-1.81068084 0-1.0040851.808284-1.80899291 1.808993-1.80899291"/></g></g></svg>