<?xml version="1.0" encoding="UTF-8"?>
<svg width="240px" height="33px" viewBox="0 0 240 33" version="1.1" xmlns="http://www.w3.org/2000/svg" xmlns:xlink="http://www.w3.org/1999/xlink">
    <title>carone-white</title>
    <g id="Symbols" stroke="none" stroke-width="1" fill="none" fill-rule="evenodd">
        <g id="Desktop-/-Footer" transform="translate(-165.000000, -60.000000)" fill="#FFFFFF">
            <path d="M246.881368,60 C247.445485,60 247.957533,60.2188449 248.33641,60.5751205 C248.699859,60.9175581 248.940279,61.3866955 248.984728,61.9110693 L248.992187,62.0878084 L248.992187,90.9121916 C248.992187,91.4678487 248.772635,91.9727109 248.414873,92.3467885 C248.068485,92.7088794 247.592849,92.948308 247.060733,92.9925728 L246.881368,93 L167.110578,93 C166.499192,93 165.948273,92.742703 165.562917,92.3315975 C165.252371,92.000561 165.049133,91.5695643 165.007803,91.0929529 L165,90.9121916 L165,62.0878084 C165,61.5112638 165.236108,60.9893117 165.618105,60.6114364 C165.957657,60.2755472 166.41229,60.0536841 166.918469,60.008528 L167.110578,60 L246.881368,60 Z M209.46201,65.9526512 L206.355889,65.9526512 L196.409585,87.6785809 L199.641438,87.6785809 L202.05723,82.2470985 L213.729236,82.2470985 L216.145028,87.6785809 L219.439267,87.6785809 L209.46201,65.9526512 Z M185.163917,65.973705 C182.998151,65.973705 181.03826,66.442726 179.285203,67.3807682 C177.532147,68.3190477 176.160367,69.6105172 175.170343,71.2547019 C174.18032,72.8993613 173.685308,74.7505229 173.685308,76.8084241 C173.685308,78.8665626 174.18032,80.7177242 175.170343,82.3619089 C176.160367,84.0065684 177.526628,85.2975631 179.269846,86.2358426 C181.012825,87.1741221 182.967198,87.6431432 185.133204,87.6431432 C186.824114,87.6431432 188.376574,87.3609235 189.789625,86.7957721 C191.084482,86.2781518 192.202516,85.5397433 193.142248,84.5809122 L193.394117,84.3139481 L191.382877,82.4072445 C189.732518,84.102224 187.701362,84.9495951 185.28797,84.9495951 C183.678882,84.9495951 182.22456,84.5968798 180.925004,83.8902625 C179.625689,83.1843573 178.609511,82.2107114 177.877671,80.9697993 C177.145351,79.7288873 176.779191,78.3419996 176.779191,76.8084241 C176.779191,75.2753233 177.145351,73.8879609 177.877671,72.6470488 C178.609511,71.4061368 179.625689,70.4329655 180.925004,69.7265856 C182.22456,69.0204431 183.678882,68.6672531 185.28797,68.6672531 C187.610902,68.6672531 189.567847,69.4302578 191.15818,70.9558544 L191.382877,71.1789844 L193.394117,69.2725182 C192.404333,68.1830411 191.207475,67.3610674 189.804982,66.8058851 C188.402249,66.2511774 186.855067,65.973705 185.163917,65.973705 Z M230.99238,65.9168575 L223.22192,65.9168575 L223.22192,87.5948407 L226.352515,87.5948407 L226.352515,78.0610854 L228.318165,78.0610854 L235.146831,87.6430245 L238.558885,87.6430245 L231.674791,78.0200223 L231.674791,78.017174 C231.839155,78.0093411 232.00088,77.9988974 232.132851,77.9858426 C232.468057,77.952375 233.290357,77.8738092 234.568318,77.4881011 C235.846038,77.1026304 236.831503,76.3684795 237.522552,75.4228418 C238.213361,74.4772042 238.558885,73.3326599 238.558885,71.9887341 C238.558885,70.0976962 237.885112,68.6130166 236.537567,67.534458 C235.324393,66.5636604 233.700668,66.0336381 231.674791,65.937033 L230.99238,65.9168575 Z M319.36944,66.1966086 L319.36944,68.8595375 L307.059413,68.8595375 L307.059413,75.4398367 L317.919437,75.4398367 L317.919437,78.0412896 L307.059413,78.0412896 L307.059413,84.9586384 L319.36944,84.9586384 L319.36944,87.6213299 L303.965529,87.6213299 L303.965529,66.1966086 L319.36944,66.1966086 Z M265.360806,66.1732525 C267.433953,66.1732525 269.309142,66.6375264 270.987095,67.5660742 C272.664808,68.494622 273.978041,69.772562 274.925834,71.3998943 C275.873146,73.0277012 276.346803,74.8593994 276.346803,76.8961756 C276.346803,78.9329519 275.873146,80.7651248 274.925834,82.3922197 C273.978041,84.0200266 272.664808,85.2977293 270.987095,86.2260397 C269.309142,87.1545875 267.433953,87.6188614 265.360806,87.6188614 C263.268224,87.6188614 261.382716,87.1545875 259.705003,86.2260397 C258.02681,85.2977293 256.709259,84.0148047 255.751628,82.3772661 C254.793998,80.7402021 254.315542,78.9132511 254.315542,76.8961756 C254.315542,74.8795749 254.793998,73.0523865 255.751628,71.4148479 C256.709259,69.7777839 258.02681,68.494622 259.705003,67.5660742 C261.382716,66.6375264 263.268224,66.1732525 265.360806,66.1732525 Z M282.951958,66.1733237 L295.946795,82.1501849 L295.946795,66.1733237 L299.040919,66.1733237 L299.040919,87.598045 L296.503954,87.598045 L283.509116,71.6214213 L283.509116,87.598045 L280.414993,87.598045 L280.414993,66.1733237 L282.951958,66.1733237 Z M400.438542,84.1954711 C402.646613,84.2027278 404.794562,84.4832714 404.81818,85.2777199 C404.763662,85.7970067 403.533519,86.0442461 401.985533,86.0744954 L401.738598,86.0774764 C399.411552,86.0886185 396.492281,85.6348065 395.726089,84.8922492 C395.278385,84.5542247 397.719014,84.2107897 400.183615,84.195833 Z M362.773975,82.9801348 C372.899266,82.9885705 384.890515,83.4384547 384.793096,84.3918967 C384.847152,85.0283412 378.831456,85.382912 371.688918,85.4031606 L371.200238,85.4040225 C370.219619,85.4047078 369.220136,85.3991541 368.214321,85.3872285 L367.206861,85.3731741 C359.305826,85.246366 351.272671,84.7258511 349.131857,83.7477048 C348.065526,83.2625101 354.216242,82.9981802 361.696899,82.9809173 Z M338.853436,83.8187848 L339.116873,83.8200162 C341.492094,83.8390642 343.951459,84.0755923 343.936026,84.7247688 C343.9471,85.1291701 342.911812,85.3170159 341.526057,85.3382301 L341.291972,85.3402315 C338.921058,85.3449875 335.684016,84.8945821 334.802576,84.2201439 C334.46361,84.0075758 336.575568,83.8156974 338.853436,83.8187848 Z M265.360806,68.8390297 C263.840499,68.8390297 262.46344,69.1886593 261.22987,69.8874437 C259.99606,70.5864655 259.028591,71.5496677 258.328184,72.7777624 C257.627058,74.0056197 257.276734,75.3789779 257.276734,76.8961756 C257.276734,78.4138481 257.627058,79.7864943 258.328184,81.0145889 C259.028591,82.2424462 259.99606,83.2061231 261.22987,83.9049076 C262.46344,84.6039294 263.840499,84.9533216 265.360806,84.9533216 C266.880874,84.9533216 268.247855,84.6039294 269.462229,83.9049076 C270.676363,83.2061231 271.633514,82.2424462 272.334401,81.0145889 C273.035047,79.7864943 273.385851,78.4138481 273.385851,76.8961756 C273.385851,75.3789779 273.035047,74.0056197 272.334401,72.7777624 C271.633514,71.5496677 270.676363,70.5864655 269.462229,69.8874437 C268.247855,69.1886593 266.880874,68.8390297 265.360806,68.8390297 Z M361.084704,67.4098184 L361.516417,67.4114271 C364.65835,67.43149 367.289069,67.6318345 370.467726,67.9095087 C370.617453,67.9097461 370.826687,67.961965 370.941862,68.0251025 C374.273293,69.2695749 378.459898,71.4055671 382.377041,74.2503129 C382.433668,74.3146371 382.526768,74.4354528 382.716567,74.4354528 C389.037984,75.1693663 400.525951,75.5871179 404.00447,81.6658779 C404.254412,82.121452 403.568682,82.3197458 402.548545,82.3392627 L402.375529,82.3408736 C400.792372,82.3407161 398.531956,81.9481233 397.623546,81.4280443 C395.811147,80.4652235 394.670743,79.8990742 396.992968,79.9039943 L397.142641,79.905047 C397.759569,79.9122446 398.596545,79.9553611 399.697172,80.0371215 C400.943068,79.51261 399.022629,78.7019639 396.011704,77.930939 L395.527536,77.809575 C394.378076,77.5273822 393.095429,77.2528945 391.783404,77.0024022 L391.219612,76.8965649 C387.829696,76.2709258 384.343578,75.8193374 382.526288,75.8187801 L382.407189,75.8184705 L382.407189,75.8184705 L382.31429,75.8167425 C382.122842,75.8099392 382.090224,75.7798269 381.83044,75.6443214 C378.099017,73.010825 374.864284,71.3426671 370.887154,69.3808962 C370.739107,69.3220312 370.616973,69.2683881 370.467486,69.2683881 C367.072608,68.8783701 363.840508,68.7079582 360.671696,68.7257309 L359.722851,68.7366768 C357.197132,68.7807531 354.705549,68.9432565 352.197163,69.208099 C345.315468,70.8086097 342.360994,73.5031072 336.827805,74.6792203 C335.208879,74.8598504 335.538087,76.7558728 336.578499,78.9747033 C337.133432,80.0498094 337.705372,80.9210301 336.860878,80.9883965 L336.777513,80.9923388 C336.456306,80.9980243 335.962434,80.9065076 335.237673,80.6934187 C334.050412,79.1850032 333.439986,76.4605984 332.675273,74.7960009 C332.137551,73.9963167 332.111953,73.3512483 333.440637,73.3417051 L333.593884,73.3432845 C333.805759,73.3489427 334.048043,73.3689402 334.323472,73.4048407 C334.449356,73.4222935 334.584626,73.4303667 334.728676,73.4297438 L334.951261,73.4223731 C338.615544,73.2028253 347.162245,68.1713435 352.197643,67.7806229 C355.819788,67.5149115 358.619244,67.4071441 361.084704,67.4098184 Z M207.893233,69.1183061 L212.630757,79.7640876 L203.155469,79.7640876 L207.893233,69.1183061 Z M359.371004,75.5482027 L360.223288,75.5505172 C369.998751,75.5932464 378.807402,76.1874577 378.703924,76.8761426 C379.02608,77.2544973 376.057216,77.4214244 371.826055,77.4344478 L371.412715,77.4352297 L371.412715,77.4352297 L370.991903,77.4350622 C368.5869,77.4314452 365.841649,77.382661 363.09072,77.2981963 L361.635653,77.2501983 C354.053405,76.9826786 346.879036,76.455227 347.18274,75.8683169 C349.410095,75.7340288 351.795447,75.6456798 354.219967,75.5964354 L355.077114,75.5806675 C355.649371,75.5712233 356.223022,75.5638995 356.796521,75.5586071 L357.65646,75.5521809 C357.942939,75.5505393 358.229186,75.5493943 358.515008,75.548735 L359.371004,75.5482027 L359.371004,75.5482027 Z M230.914877,68.6113551 C232.555878,68.6113551 233.808164,68.9033065 234.672215,69.4879213 C235.535786,70.0720614 235.967692,70.9127864 235.967692,72.0091469 C235.967692,73.1057448 235.535786,73.9500302 234.672215,74.5412911 C233.808164,75.133264 232.555878,75.4287758 230.914877,75.4287758 L226.352515,75.4287758 L226.352515,68.6113551 L230.914877,68.6113551 Z M322.282546,66.0826764 C323.252894,66.0826764 324.054799,66.8749802 324.054799,67.8633424 C324.054799,68.8483816 323.252894,69.64567 322.282546,69.64567 C321.286764,69.64567 320.48246,68.8483816 320.48246,67.8633424 C320.48246,66.8749802 321.286764,66.0826764 322.282546,66.0826764 Z M322.282546,66.2474034 C321.368106,66.2474034 320.648984,66.9841653 320.648984,67.8633424 C320.648984,68.7394339 321.368106,69.4510357 322.282546,69.4510357 C323.169392,69.4510357 323.861881,68.7394339 323.861881,67.8633424 C323.861881,66.9841653 323.169392,66.2474034 322.282546,66.2474034 Z M322.408686,66.7948279 C322.567182,66.7965521 322.686426,66.805173 322.754379,66.8482774 C322.865475,66.8748615 322.948977,66.9301662 323.004644,67.0398259 C323.059353,67.1221895 323.086707,67.2325613 323.086707,67.3417464 C323.086707,67.5059987 323.059353,67.6151838 322.948977,67.7243688 C322.865475,67.8335539 322.725106,67.8886212 322.560502,67.9185284 C322.641844,67.9724088 322.725106,68.0279508 322.779574,68.0813565 C322.835481,68.1366612 322.920183,68.2458462 323.004644,68.4119974 L323.004644,68.4119974 L323.25299,68.7946199 L322.754379,68.7946199 L322.47604,68.3564554 C322.365424,68.2178379 322.282642,68.1081781 322.255048,68.0813565 C322.199381,68.0279508 322.172267,67.9994677 322.116359,67.9724088 L322.116359,67.9724088 L321.838979,67.9724088 L321.838979,68.7946199 L321.42435,68.7946199 L321.42435,66.7943969 Z M322.448686,67.1221895 L321.838979,67.1221895 L321.838979,67.6436668 L322.144673,67.6436668 C322.337111,67.6436668 322.448686,67.6151838 322.504354,67.6151838 C322.560502,67.5897864 322.587856,67.5598792 322.61305,67.5342444 C322.641844,67.4806013 322.669438,67.4250593 322.669438,67.3702294 C322.669438,67.316349 322.641844,67.2605697 322.61305,67.2071639 C322.560502,67.1770193 322.532188,67.151622 322.448686,67.1221895 L322.448686,67.1221895 Z" id="carone-white"></path>
        </g>
    </g>
</svg>