<?xml version="1.0" encoding="UTF-8"?>
<svg width="22px" height="22px" viewBox="0 0 31 30" version="1.1" xmlns="http://www.w3.org/2000/svg" xmlns:xlink="http://www.w3.org/1999/xlink">
    <title>icon-whatsapp</title>
    <g id="Desktop" stroke="none" stroke-width="1" fill="none" fill-rule="evenodd">
        <g id="Dueño-Vende" transform="translate(-619.000000, -1034.000000)" fill="#FFFFFF" fill-rule="nonzero">
            <g id="Whatsapp" transform="translate(545.000000, 1019.000000)">
                <g id="icon-whatsapp" transform="translate(74.000000, 15.000000)">
                    <path d="M26.0005965,4.35949811 C23.1590349,1.55718459 19.3007231,-0.0119127514 15.2812013,6.81090253e-05 C6.92932574,6.81090253e-05 0.130434367,6.66841932 0.127037639,14.866161 C0.123342955,17.4765022 0.821393637,20.0412005 2.15012902,22.2991731 L0,30.0000414 L8.03326244,27.9328605 C10.2569084,29.1202903 12.746104,29.7417553 15.2750872,29.7408904 L15.2812013,29.7408904 C23.6323975,29.7408904 30.4306095,23.0719385 30.4347343,14.8748664 C30.4449049,10.9258589 28.8475932,7.13786084 26.0005965,4.35949811 Z M15.2812013,27.2317472 L15.2757665,27.2317472 C13.0212785,27.2324027 10.8077797,26.6376815 8.86546087,25.5094307 L8.40554386,25.2415744 L3.63857536,26.4683562 L4.91098978,21.9087725 L4.61139834,21.440024 C3.35079487,19.4727379 2.68290441,17.1930152 2.68544613,14.866161 C2.68544613,8.05390597 8.33828864,2.51126953 15.2859567,2.51126953 C22.2262235,2.49907368 27.8627755,8.03441797 27.8762698,14.875536 C27.8735525,21.6884607 22.2234346,27.2317472 15.2812013,27.2317472 Z M22.1894673,17.9779815 C21.8110718,17.7918214 19.9476266,16.8931635 19.602519,16.76928 C19.2574114,16.6453964 19.0026568,16.5831199 18.7506196,16.9554401 C18.4985823,17.3277603 17.7723618,18.1607934 17.5515745,18.4119087 C17.3307872,18.6630239 17.1099998,18.6904792 16.7316043,18.5043191 C16.3532087,18.318159 15.1324246,17.9264191 13.6860977,16.6607982 C12.5604219,15.6757567 11.8009135,14.4596891 11.5801261,14.0880385 C11.3593388,13.7163879 11.556349,13.5148261 11.7458865,13.3300052 C11.9164022,13.1632647 12.124282,12.896078 12.3138194,12.6791144 C12.5033569,12.4621508 12.566536,12.3067942 12.692215,12.0590271 C12.8178939,11.8112601 12.7553941,11.5942965 12.6609651,11.408806 C12.566536,11.2233155 11.8090656,9.3945267 11.4938492,8.65055586 C11.1861056,7.92600459 10.874286,8.02444178 10.6419498,8.01305789 C10.4211624,8.00234364 10.1664078,7.99966507 9.91572926,7.99966507 C9.52834075,8.00960465 9.16261222,8.17796916 8.90622161,8.46439574 C8.55907598,8.83671598 7.58081823,9.73671311 7.58081823,11.563493 C7.58081823,13.3902729 8.93950955,15.1581244 9.12700895,15.4058915 C9.31450835,15.6536585 11.7968374,19.4056555 15.595059,21.0148022 C16.3003505,21.3125292 17.0209931,21.573601 17.7540195,21.7969425 C18.660946,22.0795309 19.4863509,22.0400221 20.1385228,21.9442635 C20.866102,21.8377906 22.3803634,21.0456056 22.6949005,20.1777513 C23.0094375,19.3098969 23.0101169,18.5665957 22.9156878,18.4119087 C22.8212588,18.2572217 22.5685422,18.163472 22.1894673,17.9779815 Z" id="Shape"></path>
                </g>
            </g>
        </g>
    </g>
</svg>
